<?xml version="1.0" encoding="UTF-8"?>
<svg version="1.1" viewBox="0 0 2000 2000" width="1280" height="1280" xmlns="http://www.w3.org/2000/svg">
<path transform="translate(0)" d="m0 0h2e3v2e3h-2e3z" fill="#fff"/>
<path transform="translate(939,726)" d="m0 0h28l12 3 12 5 7 6 2 4-1 8v9l3 11 1 27 6 20v6l-3 3h-8l-1 19 1 8-6 2h-14l-8 2-5 5-2 5 2 10 2 5-4-2-11-11-8-12-2-9h-2l6 15 6 10 9 11 9 9 4 3v2l-20 8-12 8-7 6h-2v2l15-9 11-4 14-3 12-1 18 3 15 6 11 7 14 12 8 7 11 7 5 1-14-9-12-11-2-4 3-2 17-2h10l11 2 12 5 10 6 13 13 6 12 9 10h2l-6-8-5-11-2-7-1-8v-32l6-25 3-14h4l-3-6-4-3-26-5-3-4v-2l-18 4 1 6v8l-3 7-30 12-6 1-8-6-6-9-4-9-2-10v-10l3-5 5-3 23-8 3-2h6l10 9 3 4 4-1 10-3 2-7 8-7 12-5 11-2 7 4 5 2 10-4 6-1v-17l2-4 18-7 14-6 6 1 7 5 6 10 4 10 1 4v13l-2 5-3 3-26 9-3 2-7-1-7-6-3-5-4-1-9 3 2 5 4 8 7 24 11 37 5 22 2 14v19l-3 16-6 14-7 8-20 6-12 4-14 2h-25l-17-3-16-5-10-5-18-6-11-6-10-8 6 7 8 6 17 9v3l-27 12-15 5h-3l1 13-3 15-5 13-12 22-8 17-4 8-2-1-6-23-3-17-1-11-1 10v16l2 18 6 25 5 21 3 22v28l-3 27h-2l-6-21-6-17-9-20-11-20-16-24-14-19-13-16-10-13-12-15-10-13-13-18-9-15-10-19-6-18-2-10v-26l3-11 8-16 11-12 9-9 19-14 11-8 11-9 6-8 4-8 3-15 3-49 2-14 5-13 7-10 11-8 12-4z" fill="#010101"/>
<path transform="translate(797,977)" d="m0 0h1l3 23 6 21 9 20 10 16 10 14 11 13 9 11 11 12 7 8 12 14 13 17 10 14 10 18 7 15 6 19 3 19v16l-3 24-3 1-2-9-3-18-5-16-7-17-9-16-12-17-10-13-13-15-7-8-24-28-15-20-12-19-11-23-5-17-2-11v-28l4-19z" fill="#010101"/>
</svg>
